<svg width="32" height="32" viewBox="0 0 32 32" fill="#999999" xmlns="http://www.w3.org/2000/svg">
<path d="M14.2813 3.09375C9.96875 3.6625 6.26875 6.3 4.35 10.1687C3.48125 11.9187 3.08125 13.525 3.01875 15.5312C2.975 16.8375 3.0875 17.8938 3.38125 19.0625C5.0625 25.75 11.7313 29.9562 18.4813 28.5937C23.8188 27.5125 27.8813 23.225 28.7188 17.7812C28.8625 16.85 28.8687 15.025 28.725 14.0937C27.925 8.86875 24.1812 4.6875 19.1562 3.40625C17.625 3.0125 15.7813 2.9 14.2813 3.09375ZM13.1438 8.7125C13.575 8.8875 13.8125 9.3625 13.7188 9.85625C13.6875 10.0437 13.5438 10.2312 13.0125 10.7625L12.3563 11.4375L17.3 11.45C22.1812 11.4687 22.2437 11.4688 22.4125 11.6C22.7437 11.8438 22.8438 12.0438 22.8438 12.4375C22.8438 12.8312 22.7437 13.0312 22.4125 13.275C22.2437 13.4062 22.1812 13.4062 17.3 13.425L12.3563 13.4375L13.0125 14.1125C13.725 14.8312 13.8125 15 13.7188 15.4812C13.6625 15.7937 13.2875 16.1625 12.975 16.2188C12.4563 16.3188 12.3438 16.2375 10.6438 14.5437C8.40625 12.3062 8.4125 12.575 10.5813 10.3813C12.35 8.6 12.5625 8.4625 13.1438 8.7125ZM19.6625 15.8062C20.075 16.1062 22.7375 18.8313 22.8063 19.0188C22.9063 19.2875 22.8875 19.6062 22.7563 19.8625C22.6 20.1562 19.7125 23.0312 19.4813 23.1187C18.6875 23.4187 17.9063 22.75 18.1188 21.9562C18.1688 21.7812 18.35 21.55 18.8125 21.0937C19.1563 20.75 19.4375 20.45 19.4375 20.425C19.4375 20.3938 17.2438 20.375 14.5625 20.375C9.15625 20.375 9.48125 20.4 9.14375 19.9625C9.00625 19.7812 8.975 19.6687 8.975 19.4C8.975 19.025 9.09375 18.8125 9.4375 18.575L9.64375 18.4375H14.5375C17.2313 18.4375 19.4375 18.4187 19.4375 18.3875C19.4375 18.3625 19.1812 18.0875 18.8688 17.7812C18.0125 16.9375 17.875 16.475 18.3313 15.9562C18.5688 15.6875 18.6938 15.6312 19.1 15.6312C19.3563 15.625 19.4688 15.6625 19.6625 15.8062Z" />
</svg>
