<svg width="32" height="32" viewBox="0 0 32 32" fill="#999999" xmlns="http://www.w3.org/2000/svg">
<path d="M10.6875 2.73956C10.25 2.84894 9.92188 3.03644 9.58854 3.36977C9.25 3.70831 9.04167 4.07811 8.94792 4.53123C8.90625 4.72394 8.89062 6.18748 8.89062 9.27081V13.7396L9.41146 13.7187C10.5104 13.6719 11.776 13.901 12.8698 14.3385C13.9583 14.7708 14.9531 15.4375 15.8281 16.3229L16.3333 16.8333H20.6354C24.8438 16.8333 24.9427 16.8333 25.1406 16.9375C25.375 17.0573 25.5573 17.3541 25.5573 17.6146C25.5573 17.875 25.375 18.1719 25.1406 18.2916C24.9427 18.3958 24.8438 18.3958 21.1406 18.3958H17.3385L17.5365 18.8541C17.8698 19.6302 18.1042 20.4739 18.1927 21.2239L18.2292 21.5208H21.5833C24.8385 21.5208 24.9427 21.526 25.1406 21.625C25.375 21.7448 25.5573 22.0416 25.5573 22.3021C25.5573 22.5625 25.375 22.8594 25.1406 22.9791C24.9427 23.0781 24.8385 23.0833 21.5833 23.0833H18.2344L18.1667 23.5573C17.8698 25.6614 16.6198 27.8125 14.9635 29.0625L14.6042 29.3333H20.8333C25.2188 29.3333 27.1458 29.3177 27.3385 29.276C28.224 29.0885 28.9583 28.3489 29.1458 27.4687C29.1875 27.2708 29.2031 24.6198 29.2031 18.3177V9.43748H26.125H23.0469L22.8385 9.3229C22.7135 9.24998 22.5885 9.12498 22.5312 9.0104C22.4375 8.82811 22.4323 8.65623 22.4323 5.73956V2.66665L16.6927 2.67186C12.2812 2.67706 10.8854 2.69269 10.6875 2.73956ZM25.1406 12.25C25.375 12.3698 25.5573 12.6666 25.5573 12.9271C25.5573 13.1875 25.375 13.4844 25.1406 13.6041C24.9375 13.7083 24.849 13.7083 19.0417 13.7083H13.151L12.9427 13.5937C12.4167 13.2969 12.4115 12.5833 12.9323 12.2708L13.1354 12.1458H19.0365C24.849 12.1458 24.9375 12.1458 25.1406 12.25Z"/>
<path d="M23.9948 5.50521V7.875H26.375H28.7604L26.3906 5.50521C25.0885 4.20312 24.0156 3.13542 24.0104 3.13542C24 3.13542 23.9948 4.20312 23.9948 5.50521Z"/>
<path d="M8.94271 15.302C7.26563 15.5104 5.86459 16.1927 4.69792 17.375C3.66146 18.4218 3.06771 19.5364 2.76042 21C2.63542 21.6145 2.63542 22.9895 2.76042 23.6041C3.06771 25.0677 3.66667 26.1875 4.69792 27.2291C5.7448 28.2864 6.89063 28.9062 8.3698 29.2135C8.97917 29.3385 10.349 29.3385 10.9844 29.2135C12.3906 28.9323 13.5573 28.3073 14.599 27.276C15.651 26.2395 16.276 25.0833 16.5833 23.6041C16.7083 22.9895 16.7083 21.6145 16.5833 21C16.3802 20.0364 16.0104 19.1458 15.4792 18.3437C15.151 17.8489 14.1354 16.8281 13.651 16.5104C12.8125 15.9531 11.9063 15.5729 11.0156 15.401C10.5938 15.3177 9.3073 15.2552 8.94271 15.302ZM10.0365 18.5C10.1719 18.5677 10.2813 18.677 10.349 18.8125C10.4427 19 10.4531 19.1145 10.4531 20.2708V21.5208H11.1823C11.8125 21.5208 11.9427 21.5364 12.1198 21.625C12.3542 21.7448 12.5365 22.0416 12.5365 22.302C12.5365 22.5625 12.3542 22.8593 12.1198 22.9791C11.9323 23.0729 11.8177 23.0833 10.7083 23.0833C9.5573 23.0833 9.4948 23.0781 9.29688 22.9687C8.89584 22.7448 8.89063 22.6979 8.89063 20.7291C8.89584 18.776 8.90105 18.7552 9.28646 18.5208C9.53646 18.3698 9.76563 18.3645 10.0365 18.5Z"/>
</svg>
