<svg width="32" height="32" viewBox="0 0 32 32" fill="#999999" xmlns="http://www.w3.org/2000/svg">
<path opacity="0.989" fill-rule="evenodd" clip-rule="evenodd" d="M14.8542 2.66669C15.6181 2.66669 16.3819 2.66669 17.1458 2.66669C22.3701 3.31691 26.0941 6.02524 28.3177 10.7917C28.854 12.1035 29.1925 13.4577 29.3333 14.8542C29.3333 15.6181 29.3333 16.3819 29.3333 17.1459C28.6832 22.3701 25.9749 26.094 21.2083 28.3177C19.8967 28.854 18.5425 29.1925 17.1458 29.3334C16.3819 29.3334 15.6181 29.3334 14.8542 29.3334C9.62983 28.6831 5.90588 25.9748 3.68228 21.2084C3.146 19.8965 2.80745 18.5424 2.66666 17.1459C2.66666 16.3819 2.66666 15.6181 2.66666 14.8542C3.31677 9.62997 6.0251 5.90599 10.7917 3.68231C12.1033 3.14606 13.4575 2.80752 14.8542 2.66669ZM15.5833 6.6771C17.8621 6.6401 19.3985 7.68177 20.1927 9.8021C20.7079 12.2525 19.8485 14.0321 17.6146 15.1406C15.3563 15.8405 13.5595 15.2242 12.2239 13.2917C11.1872 11.1872 11.5084 9.32085 13.1875 7.69273C13.8992 7.13692 14.6978 6.79838 15.5833 6.6771ZM12.875 17.6667C14.9584 17.658 17.0417 17.6667 19.125 17.6927C21.1137 18.0494 22.3723 19.2039 22.901 21.1563C23.2088 22.3346 22.8529 23.246 21.8333 23.8906C18.9636 25.8856 15.8733 26.3197 12.5625 25.1927C11.3129 24.7294 10.2278 24.0263 9.30728 23.0834C8.96384 22.4538 8.89442 21.794 9.09895 21.1042C9.65957 19.1803 10.9183 18.0344 12.875 17.6667Z"/>
</svg>
